<svg xmlns="http://www.w3.org/2000/svg" width="750mm" height="750mm" viewBox="0 0 750 750"><g transform="translate(1131.573 -10.234) scale(.9047)"><circle cx="-836.26703" cy="425.81305" r="414.50101" style="fill:#001871;fill-opacity:1;fill-rule:evenodd;stroke-width:.698261"/><path fill="#fff" d="M-794.69 229.693c-7.856-17.556-34.197-5.48-34.197-5.48 22.182 14.119 34.197 5.48 34.197 5.48m-43.532-2.601a4.983 4.983 0 0 0 4.99-5.016 4.983 4.983 0 0 0-4.99-5.016c-2.727 0-4.945 2.23-4.992 5.016-.046 2.787 2.219 5.016 4.992 5.016-.046.046-.046.046 0 0m60.307 4.32s-9.566-.186-18.254 5.062l28.051.418c.462-.372.508-.372.97-.743 0 0-13.956-38.039-51.157-42.683 0 0 8.966 28.145 40.39 37.945m19.687 7.385c0-2.044-1.664-3.716-3.697-3.67-2.034 0-3.697 1.673-3.651 3.716 0 2.044 1.663 3.67 3.697 3.67 1.987.046 3.65-1.626 3.65-3.716 0 .046 0 .046 0 0m-149.775-1.904 28.051-.418c-8.734-5.295-18.254-5.063-18.254-5.063 31.425-9.846 40.39-37.992 40.39-37.992-37.155 4.645-51.11 42.73-51.11 42.73l.923.743m-9.011 3.994c0 2.044 1.663 3.762 3.697 3.762 2.033 0 3.743-1.672 3.743-3.715 0-2.044-1.664-3.763-3.697-3.763-2.08 0-3.743 1.626-3.743 3.716m2.31 30.05c-20.241-14.444-49.725-3.251-49.725-3.251 26.203-20.018 26.018-52.019 26.018-52.019-33.32 17.185-33.55 57.685-33.55 57.685 40.806 12.169 57.211-2.369 57.211-2.369m11.276-7.942.277-13.7c-15.204-4.46-30.5-1.58-30.5-1.58 29.253-15.188 34.613-46.77 34.613-46.77-35.815 11.054-42.978 50.996-42.978 50.996 16.544 8.268 29.345 10.776 38.634 11.008m161.514-17.556s-12.154-3.67-27.543 1.579v14.12c9.335-.187 18.855-2.462 36.046-11.566 0 0-8.134-39.71-44.133-49.928-.047-.046 6.054 31.397 35.63 45.795m-139.563-14.073s12.293 8.174 33.967-6.828c0 0-26.804-11.053-33.967 6.828m187.485 190.239h-15.666v19.925h15.666zm-42.238-136.595-8.087 9.707 43.81 44.076 8.872-8.917zm85.263-1.3-40.16-40.361-36 39.292 38.588 38.317zm-327.372-4.506c0 2.044 1.664 3.762 3.744 3.762a3.737 3.737 0 0 0 3.743-3.762 3.737 3.737 0 0 0-3.743-3.762 3.748 3.748 0 0 0-3.744 3.67v.092m297.287 42.544c6.932 1.95 15.389 3.483 25.787 3.901 0 0 4.713-14.119 2.68-31.21l-13.54 13.05a61.234 61.234 0 0 0 5.638 10.404 71.994 71.994 0 0 0-9.705-6.456zm-12.154 197.391h-15.666v19.925h15.666zm-22.829-258.373 9.104-9.243c-3.836-13.051-11.692-28.842-31.055-38.224.049-.047-.786 27.913 21.951 47.467m81.565 139.52c0 2.044 1.664 3.762 3.698 3.762 2.033 0 3.696-1.672 3.696-3.715 0-2.044-1.663-3.762-3.696-3.762-2.034 0-3.698 1.625-3.698 3.669v.046m-48.846-185.176c11.691 5.852 21.165-.279 21.165-.279 13.032-6.409 22.506 2.462 22.506 2.462 9.104 7.153 7.625 16.58 7.625 16.58 0 7.246-2.08 7.71-2.08 7.71-4.344 2.973-3.235-2.043-3.235-2.043.138-.046 1.017-3.53 1.017-3.53 1.71-16.255-12.847-18.624-12.847-18.624-15.435-2.694-19.27 11.611-19.27 11.611-.879 3.437-1.11 7.013-.602 10.543l-19.27-19.367.924 16.348 43.07 43.24h15.297l-15.62-15.698a65.06 65.06 0 0 0 15.48 2.88c21.952-1.347 24.263-22.48 24.263-22.48 5.776-22.061-15.02-39.896-15.02-39.896-13.863-11.983-34.89-12.958-34.89-12.958-29.9-3.483-40.482-22.665-40.482-22.665-3.513 8.731-2.588 21.643-2.588 21.643 1.987 19.879 14.557 24.523 14.557 24.523m54.115 179.046s25.047-31.769 9.658-66.138c0 0-20.01 24.894-12.015 57.034 0 0-16.082-27.263-40.806-28.703 0 0 3.79 21.69 43.163 37.807m-25.371-58.335c2.033 0 3.697-1.672 3.697-3.716 0-2.043-1.664-3.762-3.697-3.762-2.034 0-3.697 1.672-3.697 3.716 0 2.043 1.617 3.715 3.65 3.715 0 .093 0 .093.047.047m-74.865-60.472 11.23-11.704c-9.613-2.23-27.59-5.48-42.146 5.48 0-.046 7.486 8.5 30.916 6.224m90.161 83.37s19.178-35.67-1.895-66.835c0 0-15.389 28.006-1.987 58.242 0 0-20.519-24.012-45.15-21.133 0 .047 7.487 20.761 49.032 29.725M-770.66 631.164c0 2.043 1.663 3.715 3.697 3.715 2.033 0 3.697-1.672 3.697-3.715 0-2.044-1.664-3.716-3.697-3.716-2.034 0-3.697 1.672-3.697 3.716m18.623-3.577s21.027-18.16 21.258-40.871l-7.486.325c-6.793 5.991-16.73 18.717-22.275 44.494 0 0 35.492 19.275 66.454-1.904 0 0-27.866-15.513-57.95-2.044M-786.65 639.2s27.127-16.163 28.513-41.011c0 0-21.581 3.808-37.617 43.426 0 0 31.61 25.126 65.807 9.753-.045 0-24.816-20.157-56.703-12.168M-823.112 647c28.19-13.097 34.429-35.112 34.429-35.112-21.905 1.532-40.667 34.601-40.667 34.601 24.492 25.174 56.333 22.015 56.333 22.015-14.603-19.414-50.049-21.504-50.095-21.504m-15.62-11.518v9.289c-4.251-6.735-20.98-31.35-39.835-32.512 0 0 6.424 21.922 34.66 34.834 0 0-35.492 2.322-49.91 21.83 0 0 30.916 2.832 55.085-21.365v15.187h9.382v-27.263zm129.858-85.97v19.925l88.683 73.94h17.7l-90.208-93.865zm-10.952 60.564c5.407-6.966 9.473-14.908 12.015-23.361l-15.111-.233c-2.403 7.432-4.206 16.953-4.622 28.936 0 0 32.673 10.914 58.783-8.128l-10.074-8.128c-11.184-.604-26.48 1.068-40.991 10.914m-175.978 22.526c0-2.043-1.664-3.762-3.697-3.762-2.034 0-3.744 1.672-3.744 3.716 0 2.043 1.664 3.762 3.697 3.762 2.034.046 3.698-1.626 3.744-3.716 0 .047 0 .047 0 0m247.931-104.269s5.084-31.257-12.94-48.303c0 0-10.952 19.043 8.92 56.85 0 0 39.512-8.129 49.678-44.356 0 0-31.286 6.13-45.658 35.81m-36.554 66.137-13.078-10.682c.277 3.344.693 6.873 1.294 10.682 3.928.325 7.856.325 11.784 0m-19.78 4.877c2.034 0 3.744-1.672 3.744-3.716 0-2.044-1.663-3.762-3.697-3.762-2.033 0-3.743 1.672-3.743 3.716v.046c0 2.044 1.663 3.716 3.697 3.716m-311.104-54.527c0 2.044 1.663 3.762 3.697 3.762 2.033 0 3.743-1.672 3.743-3.715 0-2.044-1.664-3.762-3.697-3.762h-.046c-2.033 0-3.697 1.672-3.697 3.715m-27.08-72.408c30.87-29.446 26.525-50.996 26.525-50.996-22.551 10.357-27.681 41.615-27.681 41.615-4.16-32.837-31.84-48.675-31.84-48.675-1.803 37.62 32.995 58.056 32.995 58.056m.093 5.202c0 2.044 1.664 3.716 3.697 3.716 2.034 0 3.697-1.672 3.697-3.716 0-2.043-1.663-3.715-3.65-3.715-2.08-.047-3.744 1.625-3.744 3.715 0-.046 0-.046 0 0m53.007-233.525-28.745-29.214c-17.838-17.881-38.957-6.084-38.957-6.084l56.657 56.709c3.79-14.584 11.045-21.458 11.045-21.411m-22.136 17.835-48.894-49.14s-20.426 14.77-4.575 49.14zm-21.212 245.972c25.325-34.369 17.284-54.898 17.284-54.898-20.427 14.166-20.01 45.842-20.01 45.842-9.798-31.583-39.744-42.358-39.744-42.358 4.668 37.388 42.516 51.414 42.47 51.414m22.737 97.396a42.664 42.664 0 0 1 14.187-4.738l-9.289-2.23-.878 1.162c.277-.418.6-.79.878-1.161l-41.314 43.658s-4.714 6.828-.231 11.286c0 0 4.16 3.39 9.936-.51l40.251-35.392c-4.16-2.043-13.032-9.474-13.54-12.075m78.33-17.742-5.268-.047c-.277 23.501 22.182 42.033 22.182 42.033-30.362-12.773-57.858 3.39-57.858 3.39 31.47 20.436 66.5.325 66.5.325-6.793-28.563-18.763-40.825-25.556-45.702m-85.262-46.398c18.993-38.224 7.579-57.035 7.579-57.035-17.654 17.51-11.83 48.628-11.83 48.628-15.159-29.4-46.537-34.787-46.537-34.787 11.045 35.995 50.742 43.194 50.788 43.194m107.63 58.846c2.033 24.848 29.483 40.36 29.483 40.36-32.072-7.291-56.38 13.47-56.38 13.47 34.521 14.63 65.576-11.24 65.576-11.24-17.006-39.246-38.68-42.59-38.68-42.59m-88.45-300.406c42.284 4.876 55.916-12.355 55.916-12.355-22.366-10.682-49.493 5.48-49.493 5.48 22.367-24.29 16.636-55.78 16.636-55.78-29.9 22.712-23.06 62.701-23.06 62.655m1.987 271.656c12.062-40.964-2.403-57.499-2.403-57.499-14.326 20.297-3.235 49.929-3.235 49.929-19.917-26.334-51.758-26.102-51.758-26.102 17.099 33.487 57.442 33.672 57.396 33.672m308.979-33.533a15.502 15.502 0 0 0-3.513 7.013l7.857 8.221c-.416-5.341-1.895-10.543-4.344-15.234m-262.858-164.09 14.51 12.819h32.673c-1.571-2.601-1.063-12.54-1.063-12.54zm81.057-96.141v-18.346h56.841v26.195h18.763v18.857h-18.208v8.406h18.254v20.436h-18.254v61.354h-15.666l-21.674-21.783-19.825 19.925-14.326-14.398 32.857-33.022 16.96 17.045v-84.67zm-29.253 87.92c0 43.52 27.173 63.63 60.631 63.63 33.505-.047 60.678-20.064 60.678-63.63v-124.1h-121.263s-.045 80.628-.045 124.1m-44.687-71.572s-3.651 5.342-17.608 8.36l17.608 16.35zm155.09 181.09c3.928 0 3.928-3.02 4.02-6.038v-28.332h8.087v29.957c0 4.366-.462 11.75-12.154 11.75-7.532 0-12.015-3.529-12.015-11.239v-30.56h8.087v26.659c-.047 3.112-.462 7.803 3.975 7.803m20.795 15.651v7.664h-8.226v8.917h7.256v7.664h-7.256v9.289h8.319v7.663h-16.406v-41.197zm-2.218-50.067h9.104l2.31 5.713c.694 1.997 1.526 4.133 1.942 6.27h.093c.461-2.137 1.109-4.227 1.848-6.27l2.45-5.713h8.78l-8.735 19.878 9.382 21.226h-9.382l-2.587-6.503c-.786-2.09-1.295-4.087-1.85-6.13h-.092c-.6 2.09-1.063 4.087-1.756 6.13l-2.403 6.503h-9.104l8.688-21.226zm24.632 91.218-1.48-6.967h-8.225l-1.479 6.967h-7.995l9.474-41.104h8.55l9.796 41.104zm-51.759 0-1.94-29.632h-.139l-1.294 10.125-3.465 19.507h-6.24l-3.974-19.693-1.386-9.196v-.79h-.093l-1.202 29.632h-8.641l3.604-41.104h10.63l3.974 24.245h.093l3.234-24.245h10.86l4.252 41.104zm-26.249-91.218h8.088v33.487h8.456v7.617h-16.544zm-10.351-6.363v139.428s7.856-7.85 18.809-7.85h86.047v-172.96h-46.443s-13.17 40.824-58.413 41.382m-34.799 17.928c0-2.926-1.386-5.342-5.499-5.11h-1.109v10.962l1.433.093c3.743-.047 5.175-2.555 5.175-5.945m117.473 49.045h-.094l-.832 6.224-1.756 10.961h5.638l-2.08-10.96zm-217.802-183.132c-1.433 1.16-11.785 10.682-27.497 12.586l5.36 5.063 56.334-.232-17.515-17.557-8.826-8.917c0-.046-6.285 7.989-7.856 9.057m314.2 222.518c0-2.044-1.663-3.716-3.697-3.716-2.033 0-3.697 1.672-3.697 3.716 0 2.043 1.664 3.715 3.697 3.715 2.034 0 3.697-1.672 3.697-3.715m21.72-63.908c2.034 0 3.697-1.673 3.697-3.763 0-2.043-1.663-3.715-3.743-3.715-2.033 0-3.697 1.672-3.697 3.715.046 2.09 1.71 3.763 3.743 3.763m-23.846-27.821s-7.486 20.714 18.578 54.48c0 0 37.525-14.955 41.268-52.39 0 0-29.715 11.518-38.727 43.287 0 0-.415-31.676-21.119-45.377m28.421 9.335s-5.869-31.118-28.652-40.964c0 0-3.789 21.69 27.728 50.393 0 0 34.336-21.272 31.563-58.8.048-.046-27.265 16.488-30.639 49.371m-44.271 51.694s-14.095 16.86-1.064 57.592c0 0 40.298-1.162 56.611-35.066 0 0-31.84.557-51.157 27.356 0 .046 10.444-29.864-4.39-49.882m45.242-88.385s-11.091-29.632-35.26-35.345c0 0 0 22.015 36 44.773 0 0 30.13-26.938 20.933-63.444 0 0-24.03 21.04-21.673 54.016m-25.88 163.022c6.748-4.18 12.524-9.707 16.96-16.302 0 0-13.447-1.765-29.206 3.576zm-234.76-77.331-.925-6.224h-.092l-.924 6.224-1.756 10.914h5.73zm-119.784-242.954c-25.51 27.588-11.876 65.766-11.876 65.766 42.47-2.6 52.96-21.922 52.96-21.922-23.939-6.595-47.83 14.027-47.83 14.027 17.791-27.867 6.746-57.871 6.746-57.871m159.25 330.224h24.446s1.617-10.682 8.55-10.682h101.621V403.955l-10.074-10.683v178.07h-91.04s-12.246 1.069-21.812 12.82c0 0-7.44-11.24-23.383-12.309h-88.867V394.898l-10.907 10.96v177.839h99.22s12.246.51 12.246 10.682m-190.166-189.17c0-2.044-1.664-3.716-3.743-3.716-2.034 0-3.697 1.672-3.697 3.762 0 2.044 1.663 3.716 3.743 3.716 2.033-.047 3.65-1.719 3.697-3.762m-3.281-15.374c7.255-32.233-13.356-56.663-13.356-56.663-14.603 34.648 11.184 65.86 11.184 65.86 39.004-17.046 42.33-38.829 42.33-38.829-24.723 1.997-40.158 29.632-40.158 29.632m-27.497-16.999c-8.364 36.692 22.414 62.933 22.414 62.933 35.445-23.594 34.936-45.609 34.936-45.609-23.984 6.27-34.428 36.181-34.428 36.181 1.571-33.069-22.922-53.505-22.922-53.505m40.437-73.197s-2.126-13.33 11.691-33.255h-46.675s1.988 5.434 34.984 33.255m123.341 69.389v-5.11l-24.261-24.383h-56.842l32.072 29.493zm-58.551 206.309c.138 1.718.462-.372.462-.372v-24.337l-3.974 4.459c2.218 6.13 3.003 14.908 3.512 20.25m-59.753-238.96c0 2.044 1.663 3.716 3.697 3.67 2.033 0 3.697-1.673 3.65-3.716 0-2.044-1.663-3.67-3.696-3.716-2.034 0-3.651 1.672-3.651 3.762m59.522 266.176c2.033 0 3.743-1.672 3.743-3.715 0-2.044-1.664-3.762-3.697-3.762-2.034 0-3.743 1.672-3.743 3.715-.048 2.09 1.617 3.762 3.697 3.762-.046 0-.046 0 0 0m25.925-278.484 32.857 32.512v-25.127l-32.857-33.023zm-25.556 193.211h-15.666v19.879h15.666zm217.801-213.879-25.555 27.914.23 44.633s-.785 7.385-2.356 11.008h16.405l46.952-47.188zm-138.453 136.874v7.617h-8.226v8.917h7.21v7.663h-7.21v9.29h8.318v7.616h-16.36v-41.057l-11.321 41.057h-6.609l-11.83-41.103h8.688l4.898 19.739c.694 2.322.97 4.69 1.433 7.013h.092c.462-2.415.6-4.738 1.248-7.106l4.944-19.6h24.724zm10.167 91.171h-8.596l-1.525-6.92h-8.226l-1.479 6.92h-7.995l9.474-41.104h8.503zm-8.55-91.171h8.134c5.13 0 14.326.557 14.326 11.75 0 4.552-1.803 8.36-5.777 10.59l7.117 18.717h-8.503l-7.117-18.95h-.092v18.95h-8.087zm25.464 0h8.087v41.103h-8.087zm-6.008 91.821c-2.31 0-5.084-.696-6.932-2.09v-7.756c1.895 1.3 3.743 2.23 6.146 2.23 2.588 0 4.668-1.766 4.668-4.506 0-3.158-2.542-4.366-4.806-6.038-4.668-3.158-7.533-6.177-7.533-12.168 0-6.503 3.743-12.122 10.675-12.122 2.542 0 4.991.696 7.163 1.997v7.895c-1.617-1.393-3.65-2.647-5.823-2.647-2.541 0-4.113 1.533-4.113 4.04 0 6.735 12.293 7.153 12.293 18.254 0 7.338-4.16 12.865-11.738 12.911m-40.252-34.183h-6.377V531.4h-8.087v-33.487h-6.331v-7.617h20.795zm-40.343-105.152V565.77h85.308c9.659.232 19.595 7.85 19.595 7.85V435.211c-51.712-1.115-62.11-42.45-62.11-42.45zm3.697 225.166c-.832-13.19-3.189-22.805-6.147-30.515h-15.111c4.066 14.398 13.401 25.313 13.401 25.313-27.681-17.881-57.58-6.735-57.58-6.735 27.45 25.638 65.437 11.937 65.437 11.937m-51.296-277.138-7.58-7.152c-18.392 4.69-31.747 21.086-31.747 21.086 8.641-20.715 3.974-40.175.092-50.44l-5.546-4.551c-15.943 30.375 1.71 63.676 1.71 63.676 24.539-5.898 36.97-15.652 43.07-22.619m-41.222 233.061c22.598 30.004 62.341 23.13 62.341 23.13 4.806-42.497-12.292-56.245-12.292-56.245-10.63 22.526 5.453 49.79 5.453 49.79-24.17-22.387-55.502-16.675-55.502-16.675m68.488-150.714h-15.667v19.925h15.667z" style="fill:#fff;stroke-width:.463286"/></g></svg>